<svg width="643" height="156" viewBox="0 0 643 156" fill="none" xmlns="http://www.w3.org/2000/svg">
<path d="M0.680001 36.98H9.92V69.43H47.87V36.98H57.11V112H47.87V77.68H9.92V112H0.680001V36.98ZM76.5198 36.98H122.5V45.45H85.7598V69.43H119.86V77.68H85.7598V103.53H123.6V112H76.5198V36.98ZM138.61 36.98H147.85V103.2H181.95V112H138.61V36.98ZM193.502 36.98H202.742V103.2H236.842V112H193.502V36.98ZM242.176 74.49C242.176 67.3767 243.276 61.3633 245.476 56.45C247.75 51.5367 250.61 47.5767 254.056 44.57C257.576 41.5633 261.463 39.4 265.716 38.08C270.043 36.6867 274.26 35.99 278.366 35.99C282.473 35.99 286.653 36.5767 290.906 37.75C295.233 38.85 299.12 40.8667 302.566 43.8C306.086 46.66 308.946 50.5833 311.146 55.57C313.42 60.5567 314.556 66.9 314.556 74.6C314.556 81.7867 313.42 87.8367 311.146 92.75C308.946 97.6633 306.086 101.66 302.566 104.74C299.12 107.82 295.233 110.057 290.906 111.45C286.653 112.77 282.473 113.43 278.366 113.43C274.26 113.43 270.043 112.77 265.716 111.45C261.463 110.13 257.576 107.967 254.056 104.96C250.61 101.953 247.75 97.9567 245.476 92.97C243.276 87.9833 242.176 81.8233 242.176 74.49ZM304.106 75.04C304.106 65.14 301.796 57.6233 297.176 52.49C292.63 47.3567 286.506 44.79 278.806 44.79C274.92 44.79 271.363 45.4133 268.136 46.66C264.983 47.8333 262.233 49.63 259.886 52.05C257.613 54.47 255.816 57.5133 254.496 61.18C253.25 64.7733 252.626 69.0267 252.626 73.94C252.626 83.84 254.9 91.43 259.446 96.71C264.066 101.99 270.226 104.63 277.926 104.63C281.74 104.63 285.26 104.043 288.486 102.87C291.713 101.623 294.463 99.7533 296.736 97.26C299.083 94.7667 300.88 91.6867 302.126 88.02C303.446 84.3533 304.106 80.0267 304.106 75.04ZM328.171 31.92L339.391 30.71L337.521 91.98H330.371L328.171 31.92ZM327.181 105.51C327.181 103.75 327.804 102.247 329.051 101C330.297 99.68 331.837 99.02 333.671 99.02C335.577 99.02 337.191 99.68 338.511 101C339.831 102.247 340.491 103.75 340.491 105.51C340.491 107.343 339.831 108.883 338.511 110.13C337.191 111.377 335.577 112 333.671 112C331.837 112 330.297 111.377 329.051 110.13C327.804 108.883 327.181 107.343 327.181 105.51Z" fill="#A1C6C3"/>
<path d="M374.16 6.26H380.04V54H374.16V6.26ZM392.064 0.729997L397.804 0.0999972V5.49C397.804 6.61 397.594 7.89333 397.174 9.34C396.754 10.74 396.287 12.07 395.774 13.33C395.167 14.8233 394.49 16.3167 393.744 17.81L389.404 17.04C389.87 15.7333 390.314 14.45 390.734 13.19C391.06 12.1167 391.364 10.95 391.644 9.69C391.924 8.43 392.064 7.31 392.064 6.33V0.729997ZM405.581 25.16C405.581 23.5733 405.441 21.66 405.161 19.42L410.411 18.72L411.181 23.13C412.441 22.1967 413.677 21.38 414.891 20.68C416.104 19.98 417.411 19.3733 418.811 18.86C420.211 18.3467 421.634 18.09 423.081 18.09C425.414 18.09 427.257 18.51 428.611 19.35C429.964 20.1433 430.967 21.52 431.621 23.48C433.534 22.1267 435.517 20.89 437.571 19.77C439.671 18.65 441.841 18.09 444.081 18.09C445.807 18.09 447.277 18.3233 448.491 18.79C449.704 19.21 450.684 19.9333 451.431 20.96C452.177 21.9867 452.714 23.34 453.041 25.02C453.367 26.7 453.531 28.8 453.531 31.32V54H447.931V31.95C447.931 30.55 447.907 29.3133 447.861 28.24C447.814 27.12 447.651 26.1867 447.371 25.44C447.091 24.6467 446.624 24.04 445.971 23.62C445.364 23.2 444.477 22.99 443.311 22.99C442.237 22.99 441.211 23.1533 440.231 23.48C439.297 23.76 438.317 24.18 437.291 24.74C436.264 25.3 434.677 26.4433 432.531 28.17V54H426.931V31.95C426.931 30.55 426.907 29.3133 426.861 28.24C426.814 27.12 426.651 26.1867 426.371 25.44C426.091 24.6467 425.624 24.04 424.971 23.62C424.364 23.2 423.477 22.99 422.311 22.99C421.097 22.99 419.837 23.2467 418.531 23.76C417.224 24.2733 415.987 24.88 414.821 25.58C413.654 26.28 412.441 27.0967 411.181 28.03V54H405.581V25.16Z" fill="#BAB4B4"/>
<path d="M480.527 6.26H491.517C497.584 6.26 502.064 7.33333 504.957 9.48C507.897 11.6267 509.367 15.2433 509.367 20.33C509.367 23.13 508.831 25.4633 507.757 27.33C506.684 29.1967 505.331 30.7133 503.697 31.88C502.111 33 500.384 33.8167 498.517 34.33C496.651 34.7967 494.924 35.03 493.337 35.03H486.407V54H480.527V6.26ZM486.407 29.78H492.847C494.434 29.78 495.857 29.64 497.117 29.36C498.424 29.0333 499.544 28.52 500.477 27.82C501.411 27.0733 502.134 26.0933 502.647 24.88C503.161 23.62 503.417 22.0567 503.417 20.19C503.417 18.3233 503.137 16.83 502.577 15.71C502.064 14.5433 501.271 13.6567 500.197 13.05C499.171 12.4433 497.864 12.0467 496.277 11.86C494.691 11.6267 492.847 11.51 490.747 11.51H486.407V29.78ZM536.331 37.83C535.398 37.8767 534.511 37.9233 533.671 37.97C532.831 38.0167 531.991 38.0867 531.151 38.18C530.358 38.2267 529.635 38.2967 528.981 38.39C525.621 38.81 523.241 39.5567 521.841 40.63C520.441 41.6567 519.741 43.15 519.741 45.11C519.741 46.7433 520.231 47.98 521.211 48.82C522.238 49.6133 523.568 50.01 525.201 50.01C527.441 50.01 529.425 49.6367 531.151 48.89C532.925 48.0967 534.651 47.07 536.331 45.81V37.83ZM536.261 50.71C534.068 51.97 532.015 52.9967 530.101 53.79C528.235 54.5367 526.205 54.91 524.011 54.91C520.885 54.91 518.388 54.1633 516.521 52.67C514.701 51.13 513.791 48.61 513.791 45.11C513.791 43.29 514.258 41.7033 515.191 40.35C516.125 38.9967 517.338 37.8767 518.831 36.99C520.371 36.0567 522.098 35.3333 524.011 34.82C525.925 34.3067 527.885 33.98 529.891 33.84C530.731 33.7467 531.828 33.6767 533.181 33.63C534.535 33.5367 535.585 33.4667 536.331 33.42C536.331 31.7867 536.285 30.34 536.191 29.08C536.098 27.7733 535.818 26.6767 535.351 25.79C534.885 24.8567 534.185 24.1567 533.251 23.69C532.365 23.2233 531.081 22.99 529.401 22.99C528.048 22.99 526.741 23.0833 525.481 23.27C524.221 23.41 523.101 23.5733 522.121 23.76C520.955 23.9933 519.881 24.25 518.901 24.53L517.781 19.7C518.948 19.42 520.208 19.1633 521.561 18.93C522.728 18.6967 524.081 18.51 525.621 18.37C527.161 18.1833 528.818 18.09 530.591 18.09C532.971 18.09 534.885 18.44 536.331 19.14C537.825 19.84 538.968 20.7967 539.761 22.01C540.601 23.1767 541.161 24.53 541.441 26.07C541.768 27.5633 541.931 29.15 541.931 30.83V47.63C541.931 48.2833 541.931 48.9833 541.931 49.73C541.978 50.43 542.025 51.13 542.071 51.83C542.165 52.53 542.258 53.2533 542.351 54L536.961 54.56L536.261 50.71ZM546.908 18.79H552.858L559.438 34.68C560.091 36.22 560.675 37.76 561.188 39.3C561.748 40.84 562.238 42.2167 562.658 43.43C563.171 44.8767 563.615 46.2767 563.988 47.63H564.058C564.478 46.2767 564.945 44.8767 565.458 43.43C565.878 42.2167 566.368 40.84 566.928 39.3C567.488 37.76 568.071 36.22 568.678 34.68L574.768 18.79H580.648L563.988 60.79C563.335 62.5167 562.471 64.01 561.398 65.27C560.371 66.53 559.368 67.58 558.388 68.42C557.221 69.4 556.008 70.24 554.748 70.94L552.018 66.11C552.998 65.6433 553.908 65.06 554.748 64.36C555.495 63.7533 556.241 62.9833 556.988 62.05C557.735 61.1633 558.341 60.09 558.808 58.83L560.978 53.09L546.908 18.79ZM605.511 37.83C604.578 37.8767 603.691 37.9233 602.851 37.97C602.011 38.0167 601.171 38.0867 600.331 38.18C599.538 38.2267 598.814 38.2967 598.161 38.39C594.801 38.81 592.421 39.5567 591.021 40.63C589.621 41.6567 588.921 43.15 588.921 45.11C588.921 46.7433 589.411 47.98 590.391 48.82C591.418 49.6133 592.748 50.01 594.381 50.01C596.621 50.01 598.604 49.6367 600.331 48.89C602.104 48.0967 603.831 47.07 605.511 45.81V37.83ZM605.441 50.71C603.248 51.97 601.194 52.9967 599.281 53.79C597.414 54.5367 595.384 54.91 593.191 54.91C590.064 54.91 587.568 54.1633 585.701 52.67C583.881 51.13 582.971 48.61 582.971 45.11C582.971 43.29 583.438 41.7033 584.371 40.35C585.304 38.9967 586.518 37.8767 588.011 36.99C589.551 36.0567 591.278 35.3333 593.191 34.82C595.104 34.3067 597.064 33.98 599.071 33.84C599.911 33.7467 601.008 33.6767 602.361 33.63C603.714 33.5367 604.764 33.4667 605.511 33.42C605.511 31.7867 605.464 30.34 605.371 29.08C605.278 27.7733 604.998 26.6767 604.531 25.79C604.064 24.8567 603.364 24.1567 602.431 23.69C601.544 23.2233 600.261 22.99 598.581 22.99C597.228 22.99 595.921 23.0833 594.661 23.27C593.401 23.41 592.281 23.5733 591.301 23.76C590.134 23.9933 589.061 24.25 588.081 24.53L586.961 19.7C588.128 19.42 589.388 19.1633 590.741 18.93C591.908 18.6967 593.261 18.51 594.801 18.37C596.341 18.1833 597.998 18.09 599.771 18.09C602.151 18.09 604.064 18.44 605.511 19.14C607.004 19.84 608.148 20.7967 608.941 22.01C609.781 23.1767 610.341 24.53 610.621 26.07C610.948 27.5633 611.111 29.15 611.111 30.83V47.63C611.111 48.2833 611.111 48.9833 611.111 49.73C611.158 50.43 611.204 51.13 611.251 51.83C611.344 52.53 611.438 53.2533 611.531 54L606.141 54.56L605.441 50.71ZM640.019 24.53C638.059 23.9233 636.309 23.5267 634.769 23.34C633.276 23.1067 631.899 22.99 630.639 22.99C629.006 22.99 627.629 23.3867 626.509 24.18C625.436 24.9733 624.899 26 624.899 27.26C624.946 28.38 625.436 29.3367 626.369 30.13C627.303 30.9233 628.376 31.6467 629.589 32.3C630.849 32.9067 632.226 33.5833 633.719 34.33C635.259 35.0767 636.683 35.9167 637.989 36.85C639.343 37.7833 640.439 38.9033 641.279 40.21C642.119 41.5167 642.563 43.08 642.609 44.9C642.563 46.86 642.119 48.4933 641.279 49.8C640.486 51.06 639.436 52.0867 638.129 52.88C636.869 53.6267 635.493 54.14 633.999 54.42C632.506 54.7467 631.106 54.91 629.799 54.91C628.119 54.91 626.369 54.8167 624.549 54.63C622.776 54.4433 620.863 54.0467 618.809 53.44L619.859 48.4C621.959 48.96 623.873 49.38 625.599 49.66C627.326 49.8933 628.749 50.01 629.869 50.01C630.709 50.01 631.526 49.9167 632.319 49.73C633.159 49.5433 633.906 49.2867 634.559 48.96C635.213 48.5867 635.726 48.12 636.099 47.56C636.519 47 636.729 46.37 636.729 45.67C636.683 44.3633 636.239 43.2667 635.399 42.38C634.559 41.4467 633.463 40.63 632.109 39.93C630.803 39.1833 629.379 38.46 627.839 37.76C626.346 37.0133 624.923 36.1733 623.569 35.24C622.263 34.26 621.166 33.1167 620.279 31.81C619.393 30.4567 618.949 28.8 618.949 26.84C618.949 25.44 619.299 24.2033 619.999 23.13C620.746 22.01 621.679 21.1 622.799 20.4C623.966 19.6533 625.226 19.0933 626.579 18.72C627.979 18.3 629.333 18.09 630.639 18.09C631.993 18.09 633.509 18.2067 635.189 18.44C636.869 18.6267 638.806 19 640.999 19.56L640.019 24.53Z" fill="#33823B"/>
<path d="M398.59 96.84C397.47 96.56 396.303 96.3033 395.09 96.07C394.017 95.8367 392.78 95.65 391.38 95.51C390.027 95.3233 388.603 95.23 387.11 95.23C383.657 95.23 381.183 95.7667 379.69 96.84C378.197 97.8667 377.45 99.4767 377.45 101.67C377.497 103.397 378.127 104.867 379.34 106.08C380.553 107.247 382.07 108.343 383.89 109.37C385.71 110.35 387.693 111.33 389.84 112.31C392.033 113.243 394.04 114.34 395.86 115.6C397.68 116.813 399.197 118.26 400.41 119.94C401.67 121.573 402.3 123.58 402.3 125.96C402.3 128.713 401.693 130.93 400.48 132.61C399.313 134.29 397.82 135.597 396 136.53C394.18 137.463 392.173 138.093 389.98 138.42C387.833 138.747 385.78 138.91 383.82 138.91C381.953 138.91 380.25 138.793 378.71 138.56C377.17 138.327 375.84 138.07 374.72 137.79C373.413 137.463 372.223 137.09 371.15 136.67L372.55 131C373.623 131.467 374.767 131.863 375.98 132.19C377.053 132.47 378.243 132.727 379.55 132.96C380.903 133.193 382.327 133.31 383.82 133.31C385.64 133.31 387.297 133.193 388.79 132.96C390.33 132.727 391.66 132.353 392.78 131.84C393.9 131.327 394.763 130.65 395.37 129.81C396.023 128.97 396.35 127.943 396.35 126.73C396.303 124.91 395.697 123.44 394.53 122.32C393.41 121.153 391.893 120.057 389.98 119.03C388.113 117.957 386.083 116.93 383.89 115.95C381.743 114.97 379.76 113.85 377.94 112.59C376.12 111.33 374.58 109.837 373.32 108.11C372.107 106.383 371.5 104.237 371.5 101.67C371.5 100.177 371.757 98.7067 372.27 97.26C372.783 95.8133 373.647 94.53 374.86 93.41C376.12 92.29 377.73 91.38 379.69 90.68C381.697 89.98 384.17 89.63 387.11 89.63C388.79 89.63 390.377 89.7233 391.87 89.91C393.41 90.05 394.74 90.2133 395.86 90.4C397.167 90.6333 398.403 90.89 399.57 91.17L398.59 96.84ZM409.886 102.72L415.486 102.09V138H409.886V102.72ZM408.976 92.71C408.976 91.6367 409.326 90.75 410.026 90.05C410.772 89.3033 411.682 88.93 412.756 88.93C413.876 88.93 414.809 89.3033 415.556 90.05C416.349 90.75 416.746 91.6367 416.746 92.71C416.746 93.7833 416.349 94.6933 415.556 95.44C414.809 96.14 413.876 96.49 412.756 96.49C411.682 96.49 410.772 96.14 410.026 95.44C409.326 94.6933 408.976 93.7833 408.976 92.71ZM425.61 109.79C425.657 108.81 425.54 106.687 425.26 103.42L430.44 102.72L431.21 107.2C432.61 106.267 433.987 105.45 435.34 104.75C436.74 104.05 438.163 103.443 439.61 102.93C441.057 102.37 442.457 102.09 443.81 102.09C445.723 102.09 447.31 102.323 448.57 102.79C449.877 103.21 450.927 103.933 451.72 104.96C452.513 105.987 453.073 107.34 453.4 109.02C453.773 110.7 453.96 112.8 453.96 115.32V138H448.36V115.95C448.36 114.55 448.337 113.313 448.29 112.24C448.243 111.12 448.033 110.187 447.66 109.44C447.333 108.647 446.797 108.04 446.05 107.62C445.35 107.2 444.347 106.99 443.04 106.99C441.827 106.99 440.543 107.27 439.19 107.83C437.837 108.343 436.507 108.95 435.2 109.65C433.893 110.35 432.563 111.167 431.21 112.1V138H425.61V109.79ZM491.401 141.36C491.401 143.087 491.215 144.767 490.841 146.4C490.468 148.033 489.745 149.48 488.671 150.74C487.645 152.047 486.175 153.073 484.261 153.82C482.395 154.613 479.921 155.01 476.841 155.01C474.881 154.963 473.178 154.847 471.731 154.66C470.285 154.473 468.908 154.193 467.601 153.82C466.295 153.493 465.105 153.097 464.031 152.63L465.501 147.73C467.321 148.523 469.165 149.13 471.031 149.55C472.945 149.97 474.648 150.18 476.141 150.18C477.775 150.18 479.198 150.017 480.411 149.69C481.625 149.363 482.628 148.803 483.421 148.01C484.261 147.263 484.868 146.26 485.241 145C485.661 143.74 485.871 142.177 485.871 140.31V135.2C484.891 135.853 483.865 136.46 482.791 137.02C481.765 137.533 480.645 137.977 479.431 138.35C478.265 138.723 477.121 138.91 476.001 138.91C471.661 138.91 468.231 137.393 465.711 134.36C463.191 131.28 461.931 126.707 461.931 120.64C461.931 117.14 462.468 114.223 463.541 111.89C464.661 109.51 466.061 107.597 467.741 106.15C469.421 104.703 471.265 103.677 473.271 103.07C475.278 102.417 477.191 102.09 479.011 102.09C481.391 102.09 483.561 102.3 485.521 102.72C487.528 103.093 489.488 103.397 491.401 103.63V141.36ZM476.631 134.01C477.658 134.01 478.708 133.823 479.781 133.45C480.855 133.077 481.881 132.633 482.861 132.12C483.888 131.607 484.891 131 485.871 130.3V107.97C485.311 107.83 484.658 107.667 483.911 107.48C483.258 107.387 482.511 107.293 481.671 107.2C480.831 107.06 479.945 106.99 479.011 106.99C477.051 106.99 475.371 107.34 473.971 108.04C472.571 108.74 471.405 109.697 470.471 110.91C469.585 112.123 468.931 113.547 468.511 115.18C468.091 116.813 467.881 118.54 467.881 120.36C467.881 121.993 468.045 123.627 468.371 125.26C468.745 126.893 469.305 128.363 470.051 129.67C470.798 130.977 471.708 132.027 472.781 132.82C473.855 133.613 475.138 134.01 476.631 134.01ZM501.487 85.57L507.087 84.94V107.2C508.487 106.267 509.864 105.45 511.217 104.75C512.617 104.05 514.041 103.443 515.487 102.93C516.934 102.37 518.334 102.09 519.687 102.09C521.601 102.09 523.187 102.323 524.447 102.79C525.754 103.21 526.804 103.933 527.597 104.96C528.391 105.987 528.951 107.34 529.277 109.02C529.651 110.7 529.837 112.8 529.837 115.32V138H524.237V115.95C524.237 114.55 524.214 113.313 524.167 112.24C524.121 111.12 523.911 110.187 523.537 109.44C523.211 108.647 522.674 108.04 521.927 107.62C521.227 107.2 520.224 106.99 518.917 106.99C517.704 106.99 516.397 107.27 514.997 107.83C513.597 108.343 512.267 108.95 511.007 109.65C509.747 110.35 508.441 111.167 507.087 112.1V138H501.487V85.57Z" fill="#4EBEBE"/>
</svg>
